<svg width="48" height="47" viewBox="0 0 48 47" fill="none" xmlns="http://www.w3.org/2000/svg">
<path d="M24 0.666626C20.9358 0.666626 17.9016 1.27016 15.0707 2.44277C12.2397 3.61538 9.6675 5.3341 7.5008 7.5008C3.12495 11.8766 0.666626 17.8116 0.666626 23.9999C0.666626 34.3133 7.36329 43.0633 16.6266 46.1666C17.7933 46.3533 18.1666 45.6299 18.1666 44.9999V41.0566C11.7033 42.4566 10.3266 37.9299 10.3266 37.9299C9.25329 35.2233 7.73662 34.4999 7.73662 34.4999C5.61329 33.0533 7.89996 33.0999 7.89996 33.0999C10.2333 33.2633 11.47 35.5033 11.47 35.5033C13.5 39.0499 16.93 37.9999 18.26 37.4399C18.47 35.9233 19.0766 34.8966 19.73 34.3133C14.55 33.7299 9.11329 31.7233 9.11329 22.8333C9.11329 20.2433 9.99996 18.1666 11.5166 16.51C11.2833 15.9266 10.4666 13.5 11.75 10.35C11.75 10.35 13.71 9.71996 18.1666 12.73C20.01 12.2166 22.0166 11.96 24 11.96C25.9833 11.96 27.9899 12.2166 29.8333 12.73C34.2899 9.71996 36.2499 10.35 36.2499 10.35C37.5333 13.5 36.7166 15.9266 36.4833 16.51C37.9999 18.1666 38.8866 20.2433 38.8866 22.8333C38.8866 31.7466 33.4266 33.7066 28.2233 34.2899C29.0633 35.0133 29.8333 36.4366 29.8333 38.6066V44.9999C29.8333 45.6299 30.2066 46.3766 31.3966 46.1666C40.6599 43.0399 47.3333 34.3133 47.3333 23.9999C47.3333 20.9358 46.7297 17.9016 45.5571 15.0707C44.3845 12.2397 42.6658 9.6675 40.4991 7.5008C38.3324 5.3341 35.7602 3.61538 32.9292 2.44277C30.0983 1.27016 27.0641 0.666626 24 0.666626Z" fill="black"/>
</svg>
